<?xml version="1.0" encoding="utf-8"?>
<!-- Generator: Adobe Illustrator 27.2.0, SVG Export Plug-In . SVG Version: 6.00 Build 0)  -->
<svg version="1.1" id="icon" xmlns="http://www.w3.org/2000/svg" xmlns:xlink="http://www.w3.org/1999/xlink" x="0px" y="0px"
	 viewBox="0 0 32 32" style="enable-background:new 0 0 32 32;" xml:space="preserve">
<path d="M27,5H16v2h3v8h-3v2h3v8h-6v-9h-2v9H5v-9H3v9c0,1.1,0.9,2,2,2h22c1.1,0,2-0.9,2-2V7C29,5.9,28.1,5,27,5z M27,25h-6v-8h6v-2
	h-6V7h6V25z"/>
<g>
	<circle cx="8" cy="7" r="2"/>
	<path d="M8,17l-4.8-6.4C2.4,9.6,2,8.3,2,7c0-3.3,2.7-6,6-6s6,2.7,6,6c0,1.3-0.4,2.6-1.2,3.6L8,17z M8,3C5.8,3,4,4.8,4,7
		c0,0.9,0.3,1.7,0.8,2.4L8,13.7l3.2-4.3C11.7,8.7,12,7.9,12,7C12,4.8,10.2,3,8,3z"/>
</g>
</svg>
