<?xml version="1.0" encoding="utf-8"?>
<!-- Generator: Adobe Illustrator 27.2.0, SVG Export Plug-In . SVG Version: 6.00 Build 0)  -->
<svg version="1.1" id="Layer_1" xmlns="http://www.w3.org/2000/svg" xmlns:xlink="http://www.w3.org/1999/xlink" x="0px" y="0px"
	 viewBox="0 0 34 34" style="enable-background:new 0 0 34 34;" xml:space="preserve">
<style type="text/css">
	.st0{fill:#FF0000;}
</style>
<path d="M32,12h-2V9h-1V7h-2V5h-2V4h-3V2H11v2H7v1H5v2H3v2H2v3H0v11h2v4h1v1h2v2h2v2h4v2h11v-2h3v-2h2v-2h2v-1h1v-4h2V12z M27,24h-2
	v-1h-2v-2h-2v-2h-2v-2h-2v-2h-2v-2h-2v-2h-2V9H9V7h3V5h8v2h3v2h2v2h2v3h2v8h-2V24z M23,29h-3v2h-8v-2H9v-3H7v-2H5v-2H3v-8h2v-3h2v1
	h2v2h2v2h2v2h2v2h2v2h2v2h2v2h2V29z"/>
<path class="st0" d="M34,10h-2V7h-1V5h-2V3h-2V2h-3V0H13v2H9v1H7v2H5v2H4v3H2v11h2v4h1v1h2v2h2v2h4v2h11v-2h3v-2h2v-2h2v-1h1v-4h2
	V10z M29,22h-2v-1h-2v-2h-2v-2h-2v-2h-2v-2h-2v-2h-2V9h-2V7h-2V5h3V3h8v2h3v2h2v2h2v3h2v8h-2V22z M25,27h-3v2h-8v-2h-3v-3H9v-2H7v-2
	H5v-8h2V9h2v1h2v2h2v2h2v2h2v2h2v2h2v2h2v2h2V27z"/>
</svg>
