<?xml version="1.0" encoding="utf-8"?>
<!-- Generator: Adobe Illustrator 27.1.1, SVG Export Plug-In . SVG Version: 6.00 Build 0)  -->
<svg version="1.1" id="Layer_1" xmlns="http://www.w3.org/2000/svg" xmlns:xlink="http://www.w3.org/1999/xlink" x="0px" y="0px"
	 viewBox="0 0 32 32" style="enable-background:new 0 0 32 32;" xml:space="preserve">
<style type="text/css">
	.st0{fill:#010101;}
</style>
<g>
	<rect x="24" y="12" class="st0" width="2" height="2"/>
	<rect x="22" y="14" class="st0" width="2" height="2"/>
	<rect x="20" y="16" class="st0" width="2" height="2"/>
	<rect x="18" y="18" class="st0" width="2" height="2"/>
	<rect x="16" y="20" class="st0" width="2" height="2"/>
	<rect x="14" y="22" class="st0" width="2" height="2"/>
	<rect x="12" y="24" class="st0" width="2" height="2"/>
	<rect x="10" y="26" class="st0" width="2" height="2"/>
	<rect x="18" y="6" class="st0" width="2" height="2"/>
	<rect x="16" y="8" class="st0" width="2" height="2"/>
	<rect x="14" y="10" class="st0" width="2" height="2"/>
	<rect x="12" y="12" class="st0" width="2" height="2"/>
	<rect x="10" y="14" class="st0" width="2" height="2"/>
	<rect x="8" y="16" class="st0" width="2" height="2"/>
	<rect x="6" y="18" class="st0" width="2" height="2"/>
	<rect x="4" y="20" class="st0" width="2" height="2"/>
	<path class="st0" d="M2,24v-2h2v2h2h2v2v2h2v2H8v2H6H4H2H0v-2v-2v-2v-2H2z M2,28h2v2h2v-2H4v-2H2V28z"/>
	<rect x="22" y="8" class="st0" width="2" height="2"/>
	<rect x="20" y="10" class="st0" width="2" height="2"/>
	<rect x="18" y="12" class="st0" width="2" height="2"/>
	<rect x="16" y="14" class="st0" width="2" height="2"/>
	<rect x="14" y="16" class="st0" width="2" height="2"/>
	<rect x="12" y="18" class="st0" width="2" height="2"/>
	<rect x="10" y="20" class="st0" width="2" height="2"/>
	<rect x="8" y="22" class="st0" width="2" height="2"/>
	<polygon class="st0" points="26,8 24,8 24,6 22,6 20,6 20,4 22,4 22,2 24,2 24,0 26,0 28,0 28,2 30,2 30,4 32,4 32,6 32,8 30,8 
		30,10 28,10 28,12 26,12 26,10 	"/>
</g>
</svg>
