<?xml version="1.0" encoding="utf-8"?>
<!-- Generator: Adobe Illustrator 27.1.1, SVG Export Plug-In . SVG Version: 6.00 Build 0)  -->
<svg version="1.1" id="icon" xmlns="http://www.w3.org/2000/svg" xmlns:xlink="http://www.w3.org/1999/xlink" x="0px" y="0px"
	 viewBox="0 0 32 32" style="enable-background:new 0 0 32 32;" xml:space="preserve">
<style type="text/css">
	.st0{fill:none;}
</style>
<path id="_inner-path_" class="st0" d="M11,23c-0.6,0-1-0.4-1-1V10c0-0.6,0.4-1,1-1c0.2,0,0.3,0,0.4,0.1l12,6
	c0.5,0.2,0.7,0.8,0.4,1.3c-0.1,0.2-0.3,0.4-0.4,0.4l-12,6C11.3,23,11.2,23,11,23z"/>
<path d="M16,2C8.3,2,2,8.3,2,16s6.3,14,14,14s14-6.3,14-14S23.7,2,16,2z M22.1,16.7l-9.4,4.7c-0.4,0.2-0.9,0-1.1-0.4
	c-0.1-0.1-0.1-0.2-0.1-0.4v-9.4c0-0.4,0.4-0.8,0.8-0.8c0.1,0,0.2,0,0.4,0.1l9.4,4.7c0.4,0.2,0.5,0.7,0.4,1.1
	C22.3,16.5,22.2,16.6,22.1,16.7z"/>
<rect id="_Transparent_Rectangle_" class="st0" width="32" height="32"/>
</svg>
