<?xml version="1.0" encoding="utf-8"?>
<!-- Generator: Adobe Illustrator 27.1.1, SVG Export Plug-In . SVG Version: 6.00 Build 0)  -->
<svg version="1.1" id="icon" xmlns="http://www.w3.org/2000/svg" xmlns:xlink="http://www.w3.org/1999/xlink" x="0px" y="0px"
	 viewBox="0 0 32 32" style="enable-background:new 0 0 32 32;" xml:space="preserve">
<style type="text/css">
	.st0{fill:none;}
</style>
<rect id="_Transparent_Rectangle_" class="st0" width="32" height="32"/>
<rect x="8" y="5" width="8" height="2"/>
<rect x="8" y="19" width="8" height="2"/>
<rect x="4" y="9" width="2" height="8"/>
<rect x="18" y="9" width="2" height="8"/>
<rect x="16" y="7" width="2" height="2"/>
<rect x="6" y="7" width="2" height="2"/>
<rect x="16" y="17" width="2" height="2"/>
<rect x="6" y="17" width="2" height="2"/>
<polygon points="26,25 26,23 24,23 24,21 22,21 22,19 18,19 18,21 20,21 20,23 22,23 22,25 24,25 24,27 28,27 28,25 "/>
</svg>
