<?xml version="1.0" encoding="utf-8"?>
<!-- Generator: Adobe Illustrator 27.2.0, SVG Export Plug-In . SVG Version: 6.00 Build 0)  -->
<svg version="1.1" id="icon" xmlns="http://www.w3.org/2000/svg" xmlns:xlink="http://www.w3.org/1999/xlink" x="0px" y="0px"
	 viewBox="0 0 32 32" style="enable-background:new 0 0 32 32;" xml:space="preserve">
<style type="text/css">
	.st0{fill:none;}
</style>
<path d="M16,6.5l2.8,5.6l0.5,1l1,0.1l6.2,0.9L22,18.4l-0.8,0.7l0.2,1l1,6.1L17,23.4L16,23l-0.9,0.5l-5.5,2.9l1-6.1l0.2-1L10,18.4
	l-4.4-4.4l6.2-0.9l1-0.1l0.5-1L16,6.5 M16,2l-4.6,9.2L1.3,12.7l7.4,7.2L6.9,30l9.1-4.8l9.1,4.8l-1.7-10.1l7.4-7.2l-10.2-1.5L16,2z"
	/>
<rect id="_Transparent_Rectangle_" class="st0" width="32" height="32"/>
<polyline points="16,23 15.1,23.5 9.6,26.3 10.6,20.2 10.7,19.2 10,18.4 5.6,14.1 11.7,13.2 12.7,13.1 13.2,12.1 16,6.5 "/>
</svg>
