<?xml version="1.0" encoding="utf-8"?>
<!-- Generator: Adobe Illustrator 27.2.0, SVG Export Plug-In . SVG Version: 6.00 Build 0)  -->
<svg version="1.1" id="icon" xmlns="http://www.w3.org/2000/svg" xmlns:xlink="http://www.w3.org/1999/xlink" x="0px" y="0px"
	 viewBox="0 0 32 32" style="enable-background:new 0 0 32 32;" xml:space="preserve">
<path d="M27,5H16v2h3v8h-3v2h3v8h-6v-9h-2v9H5v-9H3v9c0,1.1,0.9,2,2,2h22c1.1,0,2-0.9,2-2V7C29,5.9,28.1,5,27,5z M27,25h-6v-8h6v-2
	h-6V7h6V25z"/>
<polygon points="11,7 11,6 9,6 9,5 8,5 8,4 6,4 6,3 5,3 5,2 3,2 3,13 5,13 5,12 6,12 6,11 8,11 8,10 9,10 9,9 11,9 11,8 12,8 12,7 
	"/>
</svg>
