<?xml version="1.0" encoding="utf-8"?>
<!-- Generator: Adobe Illustrator 27.1.1, SVG Export Plug-In . SVG Version: 6.00 Build 0)  -->
<svg version="1.1" id="Layer_1" xmlns="http://www.w3.org/2000/svg" xmlns:xlink="http://www.w3.org/1999/xlink" x="0px" y="0px"
	 viewBox="0 0 32 32" style="enable-background:new 0 0 32 32;" xml:space="preserve">
<style type="text/css">
	.st0{fill:#231F20;}
</style>
<g>
	<rect x="18" y="13" class="st0" width="1" height="1"/>
	<rect x="24" y="11" class="st0" width="1" height="2"/>
	<rect x="24" y="19" class="st0" width="1" height="2"/>
	<rect x="21" y="19" class="st0" width="1" height="1"/>
	<rect x="21" y="12" class="st0" width="1" height="1"/>
	<rect x="18" y="18" class="st0" width="1" height="1"/>
	<rect x="23" y="10" class="st0" width="1" height="1"/>
	<rect x="23" y="21" class="st0" width="1" height="1"/>
	<rect x="20" y="20" class="st0" width="1" height="1"/>
	<rect x="20" y="11" class="st0" width="1" height="1"/>
	<rect x="19" y="14" class="st0" width="1" height="4"/>
	<rect x="22" y="13" class="st0" width="1" height="6"/>
	<rect x="25" y="13" class="st0" width="1" height="6"/>
	<path class="st0" d="M15,9h-1v1h-1v1h-1v1H9H7v8h2h3v1h1v1h1v1h1v1h1v-1v-1v-1v-1v-6v-1V8h-1V9z M9,14v-1h3h1v-1h1v-1h1v1h-1v1h-1
		v1H9z"/>
</g>
</svg>
